# xmcd
#
# Track frame offsets:
#	150
#	20235
#	38780
#	75155
#	95265
#	114545
#	131420
#	151207
#	184030
#	206125
#	220627
#	246732
#	271005
#
# Disc length: 4093 seconds
#
# Revision: 6
# Processed by: cddbd v1.5.2PL0 Copyright (c) Steve Scherf et al.
# Submitted via: EasyCDDAExtractor 12.0.1.1
#
DISCID=aa0ffb0d
DTITLE=Jimmy Buffett - Far Side Of The World
DYEAR=2002
DGENRE=Pop
TTITLE0=Blue Guitar
TTITLE1=Mademoiselle (Voulez-Vous Danser)
TTITLE2=Autour Du Rocher
TTITLE3=Savannah Fare You Well
TTITLE4=All The Ways I Want You
TTITLE5=Last Man Standing
TTITLE6=What If The Hokey-Pokey Is All It Really Is About
TTITLE7=Altered Boy
TTITLE8=USS Zydecoldsmobile
TTITLE9=Someday I Will
TTITLE10=Far Side Of The World
TTITLE11=Tonight I Just Need My Guitar
TTITLE12=Data Track
EXTD=YEAR: 2002
EXTT0=
EXTT1=
EXTT2=
EXTT3=
EXTT4=
EXTT5=
EXTT6=
EXTT7=
EXTT8=
EXTT9=
EXTT10=
EXTT11=
EXTT12=
PLAYORDER=
